#!OML:ASF H:\GeneralSubjects\Female5\Project 1\Capture day 1\Session 1\Female5.ASF
:FULLY-SPECIFIED
:DEGREES
49
root 11.6152 15.7529 -3.75271 -94.8256 84.1605 -100.012
lowerback 10.6033 1.77123 3.86372
upperback -8.91472 3.98339 3.96405
thorax -16.0966 1.84015 1.32182
lowerneck -16.0649 -2.6687 -1.42089
upperneck 36.4834 1.60135 -9.30137
head 15.7193 -0.286019 -3.31692
rclavicle -1.11319e-014 1.74931e-014
rhumerus -50.7997 17.4848 -77.1403
rradius 66.6428
rwrist -14.2269
rhand -29.6855 -18.8061
rfingers 7.12502
rthumb -3.01377 -48.7646
lclavicle -1.11319e-014 1.74931e-014
lhumerus -67.2972 -10.6195 95.0002
lradius 82.7164
lwrist -12.1258
lhand -35.5757 35.2291
lfingers 7.12502
lthumb -8.70037 65.0298
rfemur -0.803953 -0.320773 39.8711
rtibia 16.3159
rfoot -14.8568 -3.43856
rtoes -5.26736
lfemur -40.3875 -9.82142 -18.1356
ltibia 55.541
lfoot -33.6867 3.01288
ltoes -51.4784
50
root 12.3374 15.9285 -3.71533 -97.0708 83.7725 -102.008
lowerback 10.0288 1.84392 4.04623
upperback -8.82519 4.08677 4.07482
thorax -15.613 1.889 1.33677
lowerneck -15.4792 -2.83888 -1.57558
upperneck 36.931 1.52446 -9.36508
head 15.8004 -0.312138 -3.3362
rclavicle -1.69961e-014 1.98785e-014
rhumerus -50.3642 17.9273 -76.9246
rradius 69.4148
rwrist -13.0716
rhand -30.8171 -18.5553
rfingers 7.12502
rthumb -4.1065 -48.4954
lclavicle -1.69961e-014 1.98785e-014
lhumerus -68.6833 -10.1622 93.9289
lradius 82.3235
lwrist -11.9837
lhand -35.7133 36.0718
lfingers 7.12502
lthumb -8.83317 65.8669
rfemur 3.03045 -0.770996 40.2556
rtibia 14.3715
rfoot -12.7286 -5.21079
rtoes -7.26554
lfemur -38.7988 -12.0262 -17.4462
ltibia 44.5271
lfoot -34.772 2.08174
ltoes -49.9759
51
root 13.0422 16.0843 -3.68658 -97.6374 83.0276 -103.223
lowerback 8.68379 1.85268 4.82249
upperback -9.08623 4.19386 4.19576
thorax -15.0314 1.89515 1.05996
lowerneck -14.7224 -2.88731 -1.9679
upperneck 37.4932 1.58335 -9.04635
head 15.9045 -0.254576 -3.12242
rclavicle -2.78299e-015 2.8625e-014
rhumerus -50.4054 18.5401 -76.9975
rradius 72.017
rwrist -11.4485
rhand -31.7436 -17.5954
rfingers 7.12502
rthumb -5.00118 -47.5164
lclavicle -2.78299e-015 2.8625e-014
lhumerus -70.1333 -9.80188 92.7664
lradius 81.8242
lwrist -11.8219
lhand -35.7903 36.517
lfingers 7.12502
lthumb -8.90747 66.3089
rfemur 4.92774 -1.79445 40.8599
rtibia 13.8981
rfoot -9.59731 -6.687
rtoes -7.6692
lfemur -38.0014 -14.7536 -15.7799
ltibia 33.4453
lfoot -33.5391 5.96861
ltoes -52.5284
52
root 13.7359 16.2421 -3.66126 -96.185 81.7321 -102.309
lowerback 7.62039 1.85308 6.17628
upperback -9.41587 4.42053 4.47364
thorax -14.7004 1.91036 0.61125
lowerneck -14.4661 -3.17597 -3.04759
upperneck 38.4625 1.3184 -8.13024
head 16.3284 -0.372511 -2.61096
rclavicle 2.26615e-014 3.65764e-014
rhumerus -50.7551 19.4974 -77.1549
rradius 74.4192
rwrist -10.5814
rhand -32.175 -16.1139
rfingers 7.12502
rthumb -5.41774 -46.0246
lclavicle 2.26615e-014 3.65764e-014
lhumerus -71.6959 -9.68317 91.6698
lradius 81.1677
lwrist -11.4538
lhand -36.1312 36.0874
lfingers 7.12502
lthumb -9.23644 65.8651
rfemur 6.20596 -3.42204 41.8162
rtibia 14.1194
rfoot -4.76556 -8.52862
rtoes -7.26015
lfemur -36.8318 -17.1592 -13.4233
ltibia 23.5141
lfoot -31.7279 8.07123
ltoes -56.2232
53
root 14.4192 16.3892 -3.63485 -94.2923 80.2833 -100.686
lowerback 6.94395 1.84139 7.56415
upperback -9.70271 4.66519 4.86195
thorax -14.5789 1.93487 0.258341
lowerneck -13.7879 -3.42446 -3.27376
upperneck 39.0126 1.09696 -8.09583
head 16.4435 -0.456298 -2.60062
rclavicle 3.01159e-014 3.81667e-014
rhumerus -51.2716 20.7185 -77.3373
rradius 76.4279
rwrist -10.5743
rhand -32.5036 -14.4734
rfingers 7.12502
rthumb -5.73496 -44.3758
lclavicle 3.01159e-014 3.81667e-014
lhumerus -73.4038 -9.45707 90.6715
lradius 81.2472
lwrist -10.6378
lhand -36.6296 37.074
lfingers 7.12502
lthumb -9.71725 66.8298
rfemur 6.07137 -6.44759 42.2389
rtibia 17.0053
rfoot 0.888545 -9.96182
rtoes -6.49064
lfemur -35.8773 -20.1744 -10.124
ltibia 15.4499
lfoot -31.8706 10.8991
ltoes -58.0337
54
root 15.1053 16.5033 -3.60445 -91.6065 79.2105 -97.909
lowerback 6.54023 1.85932 8.49953
upperback -9.79422 4.85234 5.17609
thorax -14.4123 1.96833 0.0772838
lowerneck -13.5346 -3.43713 -3.70664
upperneck 39.8545 1.07027 -7.35093
head 16.8281 -0.405885 -2.22328
rclavicle -5.41688e-014 -1.59028e-014
rhumerus -51.8549 21.8105 -77.7307
rradius 77.9868
rwrist -10.9801
rhand -32.6086 -12.9435
rfingers 7.12502
rthumb -5.83633 -42.8431
lclavicle -5.41688e-014 -1.59028e-014
lhumerus -75.0127 -9.02452 89.4092
lradius 82.2067
lwrist -9.58171
lhand -36.7592 38.7683
lfingers 7.12502
lthumb -9.84237 68.5182
rfemur 6.03218 -8.48329 42.4375
rtibia 20.2789
rfoot 6.67429 -13.3967
rtoes -3.95487
lfemur -34.9731 -22.9542 -7.34675
ltibia 10.7652
lfoot -32.7837 13.685
ltoes -59.2745
55
root 15.8033 16.568 -3.56651 -87.9315 78.5017 -93.8582
lowerback 6.29975 1.92636 8.98478
upperback -9.73146 5.00221 5.37151
thorax -14.1713 2.01754 0.0126033
lowerneck -13.1904 -3.45542 -2.86418
upperneck 40.3643 1.02698 -7.76271
head 17.0074 -0.325157 -2.58124
rclavicle 6.06293e-015 -2.70347e-014
rhumerus -52.4673 22.7157 -78.2854
rradius 79.1313
rwrist -11.6879
rhand -32.3687 -11.9013
rfingers 7.12502
rthumb -5.60469 -41.8072
lclavicle 6.06293e-015 -2.70347e-014
lhumerus -76.3452 -8.93428 88.0323
lradius 83.0098
lwrist -8.21879
lhand -36.1113 37.9254
lfingers 7.12502
lthumb -9.21717 67.704
rfemur 5.19949 -10.273 42.1067
rtibia 25.6796
rfoot 11.1785 -16.6939
rtoes -0.932673
lfemur -33.6635 -24.2791 -6.17611
ltibia 8.59815
lfoot -33.3797 14.6398
ltoes -60.5302
56
root 16.5052 16.5737 -3.5241 -83.6504 78.0846 -89.0889
lowerback 6.36276 2.03353 9.12649
upperback -9.80443 5.18948 5.39043
thorax -14.2849 2.08803 -0.077816
lowerneck -13.1854 -3.5683 -2.77584
upperneck 41.006 0.59962 -7.05436
head 17.3283 -0.384675 -2.37842
rclavicle -3.57812e-014 7.51406e-014
rhumerus -53.5725 23.39 -79.0622
rradius 79.9448
rwrist -12.5382
rhand -32.0642 -11.735
rfingers 7.12502
rthumb -5.31074 -41.6485
lclavicle -3.57812e-014 7.51406e-014
lhumerus -77.7114 -9.42776 86.9359
lradius 83.6222
lwrist -6.41613
lhand -35.3226 37.4015
lfingers 7.12502
lthumb -8.4561 67.2122
rfemur 4.25777 -11.3258 41.5543
rtibia 31.2888
rfoot 13.048 -19.5947
rtoes 2.36344
lfemur -31.8034 -24.1766 -6.52143
ltibia 8.5584
lfoot -31.7912 13.3819
ltoes -61.0831
57
root 17.2074 16.5158 -3.47752 -78.9765 78.0281 -83.8185
lowerback 6.14101 2.12596 8.51893
upperback -9.62063 5.1771 5.49517
thorax -13.9656 2.16195 0.38034
lowerneck -13.5897 -3.27612 -3.10407
upperneck 41.6216 0.828243 -6.02467
head 17.7917 -0.203053 -1.83505
rclavicle -4.26393e-014 5.00937e-014
rhumerus -54.3734 24.1737 -79.541
rradius 80.3355
rwrist -13.3044
rhand -31.7229 -11.9229
rfingers 7.12502
rthumb -4.9812 -41.8444
lclavicle -4.26393e-014 5.00937e-014
lhumerus -78.696 -9.79394 86.0982
lradius 84.4002
lwrist -4.98179
lhand -34.9542 37.3723
lfingers 7.12502
lthumb -8.10058 67.1971
rfemur 3.12333 -12.1008 40.5979
rtibia 37.1503
rfoot 12.3002 -22.3301
rtoes 3.15208
lfemur -29.3407 -23.811 -7.72808
ltibia 8.44345
lfoot -29.1256 12.0317
ltoes -62.9366
58
root 17.9145 16.3929 -3.43429 -74.5281 78.3234 -78.6302
lowerback 5.79822 2.13554 7.40167
upperback -9.32574 4.95893 5.63178
thorax -13.4806 2.19145 1.19166
lowerneck -13.5317 -3.084 -2.55334
upperneck 41.7272 0.960892 -6.07777
head 17.8317 -0.0676422 -1.93783
rclavicle -1.42131e-014 -1.14102e-013
rhumerus -55.1168 25.0231 -79.8142
rradius 80.2081
rwrist -13.7963
rhand -31.1856 -11.9619
rfingers 7.12502
rthumb -4.46237 -41.8949
lclavicle -1.42131e-014 -1.14102e-013
lhumerus -78.6683 -10.7118 86.1704
lradius 83.5276
lwrist -3.35334
lhand -36.1243 36.9202
lfingers 7.12502
lthumb -9.22973 66.6982
rfemur 1.97403 -12.9765 39.136
rtibia 42.9702
rfoot 4.50812 -26.1435
rtoes 1.08355
lfemur -26.2128 -22.9089 -9.98865
ltibia 9.15395
lfoot -25.5566 11.3019
ltoes -63.2428
